<svg xmlns="http://www.w3.org/2000/svg" height="100%" stroke-miterlimit="10" viewBox="0 0 3840 600" width="100%" fill-rule="nonzero" stroke-linecap="round" stroke-linejoin="round" fill="none" stroke="#d8bfd8" stroke-width="30" xmlns:v="https://vecta.io/nano"><path d="M81.7581 360.996s-27.7779-1.138-30.4173-18.446.3779-35.968 48.2912-58.176 118.327-57.863 282.46-71.656 354.228-21.528 389.71-21.931 56.442-1.523 56.442-1.523m-457.739 58.811s-73.911 133.658-71.583 241.033M408.425 350.42c-13.122 43.518 53.145 21.532 71.246 18.41m2.346.708c-7.852 26.042 13.804 58.095-13.135 92.803-38.189 49.203-185.026 33.603 12.026-72.146m1.691-.515l93.941-27.992c8.958-2.841 32.953-2.869 39.31-8.114m-3.637-18.504c1.071 6.211-.358 12.596 4.247 18.176 5.751 6.969 26.863 9.394 30.051-1.179m1.169 2.913c-.453-2.626-3.2 7.219-3.627 8.634-1.945 6.449-5.751 15.03-2.941 21.64 6.118 14.396 28.116 10.353 39.988 10.01m.611-.328c22.71 6.848 75.068-10.754 94.775-20.573 13.328-6.64 25.586-16.425 40.545-19.005m-1.08.186c2.197-7.287 29.829-18.653 37.208-16.428"/><path d="M851.141 339.02c-8.822-2.66-38.388 18.901-40.135 27.832-1.666 8.514 12.075 4.133 15.069.96"/><path d="M824.243 368.796c-5.698.983-12.209 15.338-8.714 20.411 2.541 3.69 10.394 3.715 14.548 4.387 13.191 2.133 28.128-2.654 40.948-5.06 10.461-1.963 21.024-1.638 31.555-2.773 25.793-2.781 50.868-9.991 73.791-22.292 17.212-9.238 33.989-19.432 53.459-22.791"/><path d="M1027.02 339.829c-12.28 2.117-29.648 15.117-33.471 27.795-2.448 8.121 8.711 7.52 12.721 5.37 2.34-1.257-5.04 2.141-6.865 4.076-2.743 2.906-9.494 13.149-3.262 15.911 20.117 8.917 41.137-6.027 59.537-.48"/><path d="M1051.78 391.838c28.37-4.893 56.01-9.953 82.15-22.844 9.65-4.759 19.17-6.652 27.67-13.671m67.32-34.692c-1.1-2.773-6.97-2.996-9.32-4.385-9.64-5.705-24.28-18.861-24-30.827.68-29.656 47.36-71.869 68.89-88.557 63.68-49.364 143.4-78.717 221.41-96.082 20.22-4.4997 40.92-4.3501 61.01-8.1775 38.25-7.2842 80.78-9.5082 119.68-7.8498 7.49.319 26.23-4.9497 32.15.3618m-.26 1.7594c-5.23 2.9769-8.5 9.5386-12.88 13.6131-16.88 15.681-35.53 30.6-53.05 45.805-19.02 16.511-39.9 31.11-58.13 48.523-39.1 37.346-76.08 78.222-106.85 122.725-19.85 28.697-40.45 59.252-56.95 90.007-5.55 10.348-10.46 21.104-15.75 31.574-1 1.962-4.6 10.847-5.27 12.504-.68 1.704-3.26 5.673-1.45 5.315.98-.194 1.56-1.248 2.34-1.872"/><path d="M1386.5 458.775c15.98-17.807 55.36-25.519 77.17-32.093 11.83-3.565 23.77-6.772 35.8-9.611 64.05-15.124 123.68-13.661 188.58-5.63 13.66 1.691 27.48 2.836 40.83 6.178 23.01 5.758 44.89 15.353 67.25 23.258m82.41-72.032c.35-5.769-10.61-5.567-14.22-4.28-10.55 3.767-51.97 18.95-21.18 32.44 8.32 3.641 27.02-8.456 31.76-15.047.83-1.158 5.7-13.927 4.28-14.218-.93-.189-1.07 1.572-1.06 1.841.13 8.013 6.54 18.335 12.71 23.045 12.37 9.438 25.41 7.708 40.2 6.029 25.05-2.842 58.13-14.188 79.22-28.391 6.96-4.688 9.03-10.557 17.3-12.105"/><path d="M2025.66 358.216c-6.97 5.064-15.34 8.56-21.46 14.78-29.32 29.771-10.4 41.643 24.41 43.047 20.81.84 59.82-13.278 77.19-25.053 19.06-12.921 25.24-38.17 29.45-59.213 1.23-6.131 1.59-13.898 5.38-19.199"/><path d="M2140.42 313.943c-.54-1.699 2.74-11.806 6.21-9.741 4.96 2.962-1.29 18.465-2.11 22.051-4.23 18.592-7.85 37.702-10.84 56.571-.37 2.315-4.57 25.859-4.19 26.382.61.834 1.22-1.659 1.8-2.512 1.53-2.273 3.97-6.326 5.99-8.376 6.95-7.054 15.7-16.776 25.3-18.368 19.77-3.277 21.07 25.843 36.37 32.355m2.18-1.986c-8.63 2.727 17.75 3.054 18.65 2.961 11.89-1.232 25.08-6.809 36.57-10.051 24.32-6.862 50.48-11.779 73.19-23.356 6.91-3.523 13.31-8.715 20.51-11.668 4.38-1.797 20.41-7.97 24.14-2.231 8.46 13.052-31.12 28.656-39.51 31.502-1.76.595-9.2 3.409-10.13 2.122-2.28-3.129 5.06-13.497 5.49-14.05 6.2-7.878 25-23.752 36.03-21.329 8.07 1.772 5.26 22.761 12.79 28.145 19.6 14.028 77.85 3.562 95.69-12.324 3.68-3.28 4.97-10.755 5.71-15.415.14-.91-.29 1.819-.43 2.729-.65 4.086-1.02 4.828-.54 9.242.43 3.952 1.13 8.594 1.76 12.404.12.678.78-1.134 1.2-1.675 2.49-3.182 2.4-3.535 6.47-5.501 1.6-.772 20.49-9.162 23.13-4.722 2.17 3.638-2.48 10.855-3.6 13.884-1.26 3.403.59 6.926.69 10.369.37 13.442 9.09 13.626 22.16 16.108 2.71.516 5.44.952 8.18 1.3 22.54 2.858 78.13-8.026 96.16-21.111 7.68-5.577 37.33-26.479 48.14-21.271 15.19 7.317 8 33.165-5.92 37.3-8.25 2.452-13.3-14.427-11.36-19.524 3.23-8.451 3.48-8.131 11.48-13.566 2.98-2.022 6.18-3.683 9.27-5.524"/><path d="M2685.1 375.288c2.01-.021 12.52 14.33 20.96 15.573 17.82 2.627 46.66-.634 64.54-2.072 14.36-1.155 28.57-3.303 42.94-4.35 3.07-.224 11.05-2.108 9.23.374-2.6 3.549-8.14 3.392-10.54 8.55-13.82 29.684-14.28 63.555-13.09 95.496.05 1.165 1.04-2.086 1.53-3.142 1.9-4.077 3.99-8.063 5.98-12.099 8.55-17.383 11.05-23.416 20.54-39.607 13.87-23.676 40.38-64.838 71.85-66.711 27.33-1.627 12.63 22.961-5.02 28.504-4.6 1.443-39.62 5.784-25.5-1.457m113.12 13.417c-4.16-.621-5.49-5.562-6.14-9.478-2.33-14.022 4.8-24.088 15.41-32.455.66-.519 9.37-3.27 10.72-.921 4.82 8.42-1.61 22.472-6.38 29.269-1.59 2.263-7.96 6.14-7.56 3.406.17-1.149 2.33.802 3.45.514 2.6-.664 4.9-2.242 7.49-2.913 3.2-.829 6.52-1.113 9.8-1.561 4.95-.676 9.96-.919 14.88-1.812l40.83-7.008c11.06-1.82 23.37 4.947 34.86 2.677 6.28-1.241 33.73-15.411 27.69-23.574-1.91-2.577-3.72 5.327-4.77 8.355-1.02 2.903-5.99 16.114-4.22 21.532 3.11 9.534 18.24 10.413 25.75 6.356 10.27-5.553 16.25-16.087 24.24-24.088.58-.587 1.42-1.502 2.19-1.184 2.96 1.228-.35 7.346 2.12 9.383 5.82 4.786 16.91 9.122 24.1 10.644 10.51 2.223 28.62-3.748 39.07-5.258 10.99-1.589 20.87-6.315 31.2-9.956 35.27-12.435 80-22.086 97.66-60.488 2.29-4.992 7.09-46.108-2.56-43.696-36.39 9.104-101.18 80.687-62.92 118.047 8.7 8.5 26.88 5.695 37.52 5.089 26.59-1.515 45.37 1.081 69.87-9.227 8.94-3.761 17.52-8.587 25.31-14.36 1.32-.973 1.07-4.608 2.63-4.14 3.72 1.108 5.39 5.706 7.2 9.132 5.74 10.833-17.2 30.365-28.15 30.052-4.44-.126-10.26-3.836-7.62-9.698 3.85-8.548 19.32-18.812 28.73-20.397 11.1-1.869 16.47 4.109 26.31 5.937 14.48 2.688 31.56 4.061 46.41 2.888 9.78-.772 18.85-5.495 28.37-7.859 16.55-4.107 33.99-6.301 50.78-9.555M3560.64 378.186c12.11 0 40.69 14.369 46.61 25.423 8.18 15.274-4.61 45.347-23.73 41.523-15.03-3.007 7.01-20.786 20.34-27.965 43.46-23.399 94.64-34.866 142.37-44.913"/></svg>